# xmcd
#
# Track frame offsets:
# 200
# 23050
# 42495
# 67980
# 85797
# 109845
# 143472
# 162960
# 179765
# 200330
# 219182
# 238237
# 249487
#
# Disc length: 3601 seconds
#
# Revision: 65536
# Processed by: cddbd v1.5.2PL0 Copyright (c) Steve Scherf et al.
# Submitted via: CoinsHifi v1.9a contact@coinshifi.com
#
DISCID=af0e0f0d
DTITLE=Chris Rea - On The Beach
DYEAR=1987
DGENRE=Acoustique
TTITLE0=On The Beach
TTITLE1=Little Blonde Plaits
TTITLE2=Giverny
TTITLE3=Lucky Day
TTITLE4=Just Passing Through
TTITLE5=It's All Gone
TTITLE6=Hello Friend
TTITLE7=Two Roads
TTITLE8=Light Of Hope
TTITLE9=Auf Immer Und Ewig
TTITLE10=Freeway
TTITLE11=Bless Them All
TTITLE12=Crack That Mould
EXTD=
EXTT0=
EXTT1=
EXTT2=
EXTT3=
EXTT4=
EXTT5=
EXTT6=
EXTT7=
EXTT8=
EXTT9=
EXTT10=
EXTT11=
EXTT12=
PLAYORDER=
